<svg width="68" height="63" viewBox="0 0 68 63" fill="none" xmlns="http://www.w3.org/2000/svg">
<path d="M34.0007 14.7266L26.1807 21.9191L35.559 30.6078L32.5556 33.3903L23.1773 24.7016L18.1623 29.3478L27.5407 38.0366L24.5373 40.8191L15.159 32.1303L9.49232 37.3803C8.59186 38.1884 8.00605 39.2503 7.82661 40.3998C7.64716 41.5493 7.88422 42.7215 8.50065 43.7328L11.334 48.6941L4.95898 54.7053L8.95398 58.4066L15.4423 52.5003L20.7973 55.1253C21.6609 55.5788 22.638 55.8142 23.6307 55.8078C24.3784 55.8084 25.1189 55.6718 25.8094 55.406C26.4999 55.1402 27.1268 54.7504 27.654 54.2591L52.1056 31.5003L34.0007 14.7266Z" fill="#CF703B"/>
<path d="M56.0995 24.15L51.0278 19.425L55.0511 15.7237L59.0461 19.425L63.0411 15.7237L51.0278 4.59375L47.0328 8.295L51.0278 12.0225L47.0328 15.7237L41.9328 11.025L37.0028 6.43125L33.0078 10.1587L35.9261 12.8625V12.8888L54.0878 29.715H54.1161L57.0345 32.4188L61.0578 28.7175L56.1278 24.15H56.0995Z" fill="#CF703B"/>
</svg>
